<svg width="24" height="24" viewBox="0 0 24 24" fill="none" xmlns="http://www.w3.org/2000/svg">
<g clip-path="url(#clip0_37_312)">
<path d="M12 0C15.2663 0 15.6686 0.0236686 16.9467 0.0710059C18.2012 0.118343 19.0769 0.331361 19.858 0.639053C20.6627 0.946746 21.3254 1.34911 21.9882 2.01183C22.6509 2.67456 23.0533 3.33728 23.3609 4.14201C23.6686 4.92308 23.8817 5.79882 23.929 7.05325C23.9763 8.33136 24 8.73373 24 12C24 15.2663 23.9763 15.6686 23.929 16.9467C23.8817 18.2012 23.6686 19.0769 23.3609 19.858C23.0533 20.6627 22.6509 21.3254 21.9882 21.9882C21.3254 22.6509 20.6627 23.0533 19.858 23.3609C19.0769 23.6686 18.2012 23.8817 16.9467 23.929C15.6686 23.9763 15.2663 24 12 24C8.73373 24 8.33136 23.9763 7.05325 23.929C5.79882 23.8817 4.92308 23.6686 4.14201 23.3609C3.33728 23.0533 2.67456 22.6509 2.01183 21.9882C1.34911 21.3254 0.946746 20.6627 0.639053 19.858C0.331361 19.0769 0.118343 18.2012 0.0710059 16.9467C0.0236686 15.6686 0 15.2663 0 12C0 8.73373 0.0236686 8.33136 0.0710059 7.05325C0.118343 5.79882 0.331361 4.92308 0.639053 4.14201C0.946746 3.33728 1.34911 2.67456 2.01183 2.01183C2.67456 1.34911 3.33728 0.946746 4.14201 0.639053C4.92308 0.331361 5.79882 0.118343 7.05325 0.0710059C8.33136 0.0236686 8.73373 0 12 0ZM12 1.56213C8.59172 1.56213 8.18935 1.5858 6.86391 1.63314C5.63314 1.68047 4.94675 1.91716 4.49704 2.08284C3.33728 2.55621 2.55621 3.33728 2.08284 4.49704C1.91716 4.94675 1.68047 5.63314 1.63314 6.86391C1.5858 8.18935 1.56213 8.59172 1.56213 12C1.56213 15.4083 1.5858 15.8107 1.63314 17.1361C1.68047 18.3669 1.91716 19.0533 2.08284 19.503C2.55621 20.6627 3.33728 21.4438 4.49704 21.9172C4.94675 22.0828 5.63314 22.3195 6.86391 22.3669C8.18935 22.4142 8.59172 22.4379 12 22.4379C15.4083 22.4379 15.8107 22.4142 17.1361 22.3669C18.3669 22.3195 19.0533 22.0828 19.503 21.9172C20.6627 21.4438 21.4438 20.6627 21.9172 19.503C22.0828 19.0533 22.3195 18.3669 22.3669 17.1361C22.4142 15.8107 22.4379 15.4083 22.4379 12C22.4379 8.59172 22.4142 8.18935 22.3669 6.86391C22.3195 5.63314 22.0828 4.94675 21.9172 4.49704C21.4438 3.33728 20.6627 2.55621 19.503 2.08284C19.0533 1.91716 18.3669 1.68047 17.1361 1.63314C15.8107 1.5858 15.4083 1.56213 12 1.56213ZM12 16.8047C14.6509 16.8047 16.8047 14.6509 16.8047 12C16.8047 9.34911 14.6509 7.19527 12 7.19527C9.34911 7.19527 7.19527 9.34911 7.19527 12C7.19527 14.6509 9.34911 16.8047 12 16.8047ZM12 5.84615C15.4083 5.84615 18.1538 8.59172 18.1538 12C18.1538 15.4083 15.4083 18.1538 12 18.1538C8.59172 18.1538 5.84615 15.4083 5.84615 12C5.84615 8.59172 8.59172 5.84615 12 5.84615ZM19.858 5.60947C19.858 6.4142 19.1953 7.02959 18.3905 7.02959C17.5858 7.02959 16.9704 6.4142 16.9704 5.60947C16.9704 4.80473 17.5858 4.14201 18.3905 4.14201C19.1953 4.14201 19.858 4.80473 19.858 5.60947Z" fill="#F3F3F3"/>
</g>
<defs>
<clipPath id="clip0_37_312">
<rect width="24" height="24" fill="white"/>
</clipPath>
</defs>
</svg>
