<svg width="24" height="24" viewBox="0 0 24 24" fill="none" xmlns="http://www.w3.org/2000/svg">
<path d="M18.75 9.75C18.75 7.95979 18.0388 6.2429 16.773 4.97703C15.5071 3.71116 13.7902 3 12 3C10.2098 3 8.4929 3.71116 7.22703 4.97703C5.96116 6.2429 5.25 7.95979 5.25 9.75C5.25 12.519 7.4655 16.128 12 20.451C16.5345 16.128 18.75 12.519 18.75 9.75ZM12 22.5C6.4995 17.5005 3.75 13.2495 3.75 9.75C3.75 7.56196 4.61919 5.46354 6.16637 3.91637C7.71354 2.36919 9.81196 1.5 12 1.5C14.188 1.5 16.2865 2.36919 17.8336 3.91637C19.3808 5.46354 20.25 7.56196 20.25 9.75C20.25 13.2495 17.5005 17.5005 12 22.5Z" fill="#F3F3F3"/>
<path d="M12 12C12.5967 12 13.169 11.7629 13.591 11.341C14.0129 10.919 14.25 10.3467 14.25 9.75C14.25 9.15326 14.0129 8.58097 13.591 8.15901C13.169 7.73705 12.5967 7.5 12 7.5C11.4033 7.5 10.831 7.73705 10.409 8.15901C9.98705 8.58097 9.75 9.15326 9.75 9.75C9.75 10.3467 9.98705 10.919 10.409 11.341C10.831 11.7629 11.4033 12 12 12ZM12 13.5C11.0054 13.5 10.0516 13.1049 9.34835 12.4017C8.64509 11.6984 8.25 10.7446 8.25 9.75C8.25 8.75544 8.64509 7.80161 9.34835 7.09835C10.0516 6.39509 11.0054 6 12 6C12.9946 6 13.9484 6.39509 14.6517 7.09835C15.3549 7.80161 15.75 8.75544 15.75 9.75C15.75 10.7446 15.3549 11.6984 14.6517 12.4017C13.9484 13.1049 12.9946 13.5 12 13.5Z" fill="#F3F3F3"/>
</svg>
