<svg width="24" height="24" viewBox="0 0 24 24" fill="none" xmlns="http://www.w3.org/2000/svg">
<path d="M12.3814 1.49932L12.3813 6.74367H17.7191V8.99179H12.4049L12.3973 15.5165C12.3973 16.7294 12.4613 17.5079 12.5915 17.8531C12.7944 18.3977 13.533 19.0949 14.904 19.0949C15.9674 19.0949 17.402 18.78 18.4771 17.9881V21.4858C17.5805 21.9067 16.7467 22.0765 16.0203 22.2463C15.2931 22.4153 14.5054 22.5004 13.661 22.5004C12.7202 22.5004 10.0045 22.4749 8.89009 19.68C8.68945 19.177 8.58896 18.4465 8.58896 17.4903V8.99559H5.52298L5.53782 6.69686C6.55284 6.69686 9.59788 6.09002 9.59788 1.49934L12.3814 1.49932ZM12.3813 4.68516e-05L9.59783 0C8.75681 0 8.07493 0.671289 8.07493 1.49925C8.07493 4.93103 6.13247 5.19752 5.53778 5.19752C4.6998 5.19752 4.01868 5.86431 4.01487 6.68927L4.00002 8.988C3.99774 9.3868 4.15764 9.76986 4.44319 10.0532C4.58479 10.1931 4.75306 10.3042 4.93834 10.3799C5.12363 10.4557 5.32229 10.4947 5.52293 10.4947H7.06601V17.4902C7.06601 18.6469 7.19926 19.5431 7.47262 20.2282C8.15905 21.9486 9.78972 24 13.6609 24C14.6196 24 15.531 23.901 16.3706 23.7058L16.5384 23.6668C17.2493 23.5022 18.1573 23.2972 19.1323 22.8396C19.3921 22.7178 19.6115 22.526 19.765 22.2864C19.9186 22.0469 20.0001 21.7694 20 21.4861V17.9884C20 17.7101 19.9213 17.4374 19.7728 17.2007C19.6242 16.964 19.4117 16.7726 19.159 16.6481C18.9435 16.5413 18.7097 16.4892 18.4771 16.4892C18.1482 16.4892 17.8282 16.594 17.5649 16.7879C16.6584 17.4562 15.4983 17.596 14.9043 17.596C14.2952 17.596 14.0687 17.3786 14.0188 17.3209C13.9929 17.2032 13.9206 16.7639 13.9206 15.5169L13.9259 10.4914H17.7191C18.5601 10.4914 19.242 9.82013 19.242 8.99219V6.74402C19.242 5.91606 18.5601 5.24477 17.7191 5.24477H13.9042V1.4993C13.9042 0.671335 13.2223 4.68516e-05 12.3813 4.68516e-05H12.3813Z" fill="#F3F3F3"/>
</svg>
