<svg xmlns="http://www.w3.org/2000/svg" aria-hidden="true" style="position:absolute;width:0;height:0;overflow:hidden">
  <defs>
  /**
    |============================
    | Social-media
    |============================
  */
   <symbol id="icon-social-tumblr" viewBox="0 0 32 32">
      <path d="M16.509 1.999v6.992h7.117v2.998H16.54l-.01 8.7c0 1.617.085 2.655.259 3.115.271.726 1.255 1.656 3.083 1.656 1.418 0 3.331-.42 4.764-1.476v4.664c-1.195.561-2.307.788-3.276 1.014-.97.225-2.02.339-3.146.339-1.254 0-4.875-.034-6.361-3.761-.268-.671-.402-1.645-.402-2.92V11.994H7.363l.02-3.065c1.353 0 5.413-.809 5.413-6.93h3.711zM16.508 0h-3.711c-1.121 0-2.031.895-2.031 1.999 0 4.576-2.59 4.931-3.383 4.931-1.117 0-2.025.889-2.031 1.989l-.02 3.065c-.003.532.21 1.042.591 1.42a2.03 2.03 0 0 0 1.439.589h2.057v9.327c0 1.542.178 2.737.542 3.651C10.876 29.265 13.05 32 18.212 32c1.278 0 2.493-.132 3.613-.392l.224-.052c.948-.219 2.159-.493 3.459-1.103.346-.162.639-.418.844-.738s.313-.689.313-1.067v-4.664c0-.371-.105-.735-.303-1.05s-.481-.571-.818-.737a2.05 2.05 0 0 0-2.125.186c-1.209.891-2.755 1.077-3.547 1.077-.812 0-1.114-.29-1.181-.367-.035-.157-.131-.743-.131-2.405l.007-6.701h5.058c1.121 0 2.031-.895 2.031-1.999V8.99c0-1.104-.909-1.999-2.031-1.999h-5.087V1.997c0-1.104-.909-1.999-2.031-1.999z"/>
    </symbol>
    <symbol id="icon-instagram" viewBox="0 0 32 32">
      <path d="M16 0c4.355 0 4.891.032 6.596.095 1.673.063 2.84.347 3.882.757 1.073.41 1.957.947 2.84 1.83s1.42 1.767 1.83 2.84c.41 1.041.694 2.209.757 3.882.063 1.704.095 2.241.095 6.596s-.032 4.891-.095 6.596c-.063 1.673-.347 2.84-.757 3.882-.41 1.073-.947 1.957-1.83 2.84s-1.767 1.42-2.84 1.83c-1.041.41-2.209.694-3.882.757-1.704.063-2.241.095-6.596.095s-4.892-.032-6.596-.095c-1.673-.063-2.84-.347-3.882-.757-1.073-.41-1.957-.947-2.84-1.83s-1.42-1.767-1.83-2.84c-.41-1.041-.694-2.209-.757-3.882C.032 20.892 0 20.355 0 16s.032-4.892.095-6.596c.063-1.673.347-2.84.757-3.882.41-1.073.947-1.957 1.83-2.84s1.767-1.42 2.84-1.83C6.563.442 7.731.158 9.404.095 11.108.032 11.645 0 16 0zm0 2.083c-4.544 0-5.081.032-6.848.095-1.641.063-2.556.379-3.156.6-1.546.631-2.588 1.673-3.219 3.219-.221.6-.537 1.515-.6 3.156-.063 1.767-.095 2.304-.095 6.848s.032 5.081.095 6.848c.063 1.641.379 2.556.6 3.156.631 1.546 1.673 2.588 3.219 3.219.6.221 1.515.536 3.156.6 1.767.063 2.304.095 6.848.095s5.081-.032 6.848-.095c1.641-.063 2.556-.379 3.156-.6 1.546-.631 2.588-1.673 3.219-3.219.221-.6.536-1.515.6-3.156.063-1.767.095-2.304.095-6.848s-.032-5.081-.095-6.848c-.063-1.641-.379-2.556-.6-3.156-.631-1.546-1.673-2.588-3.219-3.219-.6-.221-1.515-.537-3.156-.6-1.767-.063-2.304-.095-6.848-.095zm0 20.323c3.535 0 6.406-2.872 6.406-6.406S19.534 9.594 16 9.594c-3.535 0-6.406 2.872-6.406 6.406s2.872 6.406 6.406 6.406zm0-14.611c4.544 0 8.205 3.661 8.205 8.205S20.544 24.205 16 24.205c-4.544 0-8.205-3.661-8.205-8.205S11.456 7.795 16 7.795zm10.477-.316c0 1.073-.884 1.893-1.957 1.893s-1.893-.821-1.893-1.893.821-1.957 1.893-1.957c1.073 0 1.957.884 1.957 1.957z"/>
    </symbol>
    <symbol id="icon-youtube" viewBox="0 0 32 32">
      <path d="M29.384 5.429C28.518 4.815 26.105 4 15.992 4 5.155 4 3.547 4.936 3.031 5.242.285 6.866.024 14.056 0 15.514c.033 1.925.349 8.332 3.029 9.916.515.305 2.114 1.236 12.963 1.236 10.119 0 12.53-.811 13.392-1.422 2.341-1.657 2.61-7.365 2.616-9.755-.006-1.921-.211-8.355-2.616-10.06zm-1.167 18.219c-.348.247-2.347 1.052-12.226 1.052-9.55 0-11.554-.73-11.933-.954-.964-.569-1.981-3.592-2.061-8.237.079-4.635 1.11-8.018 2.063-8.58.38-.226 2.391-.961 11.931-.961 9.871 0 11.875.81 12.225 1.058.856.607 1.772 3.801 1.785 8.47-.013 4.743-.936 7.551-1.785 8.153zm-5.711-9.088-8.988-5.43a1.008 1.008 0 0 0-1.379.347.988.988 0 0 0-.137.496v10.861c0 .261.105.511.293.695a1.009 1.009 0 0 0 1.222.147l8.989-5.432c.3-.179.483-.498.483-.842s-.183-.665-.482-.842zm-8.505 4.532v-7.378l6.056 3.689-6.056 3.69z"/>
    </symbol>
    <symbol id="icon-twitter" viewBox="0 0 32 32">
      <path d="M21.384 4.711c1.652 0 3.143.691 4.193 1.801a11.604 11.604 0 0 0 3.645-1.383 5.725 5.725 0 0 1-2.524 3.152 11.567 11.567 0 0 0 3.299-.9 11.668 11.668 0 0 1-2.866 2.951c.011.244.017.49.017.736 0 7.531-5.778 16.218-16.344 16.218-3.243 0-6.264-.947-8.805-2.563.454.054.912.081 1.369.081 2.691 0 5.169-.91 7.136-2.441a5.738 5.738 0 0 1-5.366-3.957 5.779 5.779 0 0 0 2.593-.097c-2.628-.522-4.608-2.826-4.608-5.589v-.073c.775.427 1.66.684 2.603.714A5.684 5.684 0 0 1 3.17 8.618a5.63 5.63 0 0 1 .778-2.864 16.356 16.356 0 0 0 11.84 5.955 5.635 5.635 0 0 1-.149-1.298c0-3.148 2.572-5.7 5.746-5.7zm8.614 2.672zm-8.614-4.716c-3.925 0-7.176 2.933-7.677 6.723a14.424 14.424 0 0 1-8.23-4.95c-.188-.228-.422-.412-.686-.538a1.958 1.958 0 0 0-1.894.115c-.27.171-.497.405-.661.684A7.724 7.724 0 0 0 1.171 8.62c0 .922.162 1.819.469 2.659a2.077 2.077 0 0 0-.515 1.371v.073c0 2.003.774 3.862 2.059 5.255a2.09 2.09 0 0 0 .055 1.069 7.7 7.7 0 0 0 2.297 3.475 9.754 9.754 0 0 1-3.3.174 2 2 0 0 0-2.122 1.353c-.31.905.034 1.908.83 2.414a18.334 18.334 0 0 0 9.861 2.871c11.37 0 18.209-9.105 18.342-17.999a13.62 13.62 0 0 0 2.45-2.721 2.06 2.06 0 0 0 .405-1.23c0-.696-.34-1.311-.859-1.68a2.074 2.074 0 0 0-.656-2.159 1.967 1.967 0 0 0-2.261-.185 9.479 9.479 0 0 1-2.111.92 7.776 7.776 0 0 0-4.729-1.613z"/>
    </symbol>
  </defs>



    /**
    |============================
    | Email and location
    |============================
    */
  <symbol id="icon-location" viewBox="0 0 32 32">
      <path  d="M25 13a9 9 0 1 0-18 0c0 3.692 2.954 8.504 9 14.268 6.046-5.764 9-10.576 9-14.268zm-9 17C8.666 23.334 5 17.666 5 13a11 11 0 0 1 22 0c0 4.666-3.666 10.334-11 17z"/>
      <path  d="M16 16a3.004 3.004 0 0 0 3-3 3.004 3.004 0 0 0-3-3 2.998 2.998 0 0 0-3 3 2.998 2.998 0 0 0 3 3zm0 2a4.997 4.997 0 0 1-5-5 4.997 4.997 0 0 1 5-5 4.997 4.997 0 0 1 5 5 4.997 4.997 0 0 1-5 5z"/>
    </symbol>

  <symbol id="icon-email" viewBox="0 0 32 32">
      <path  d="M28.444 5.333H3.555a1.776 1.776 0 0 0-1.778 1.778v17.778a1.776 1.776 0 0 0 1.778 1.778h24.889a1.776 1.776 0 0 0 1.778-1.778V7.111a1.776 1.776 0 0 0-1.778-1.778zm-1.369 19.556H5.031l6.222-6.436-1.28-1.236-6.418 6.64V8.461l11.049 10.996a1.779 1.779 0 0 0 2.506 0L28.443 8.186v15.556L21.901 17.2l-1.253 1.253 6.427 6.436zM4.72 7.111h22.285L15.858 18.196 4.72 7.111z"/>
    </symbol>
    
</svg>