<svg width="24" height="24" viewBox="0 0 24 24" fill="none" xmlns="http://www.w3.org/2000/svg">
<path d="M16.0383 3.5335C17.277 3.5335 18.3953 4.05195 19.1832 4.88431C20.1632 4.69031 21.0871 4.33682 21.9173 3.84722C21.5961 4.84484 20.9128 5.68178 20.0242 6.21125C20.8937 6.10659 21.7262 5.87808 22.4986 5.53647C21.9196 6.39298 21.1906 7.14713 20.3488 7.74983C20.3567 7.93271 20.3612 8.11751 20.3612 8.30152C20.3612 13.9501 16.0275 20.4652 8.10287 20.4652C5.67047 20.4652 3.40485 19.7552 1.49943 18.5429C1.84031 18.5834 2.1832 18.6036 2.52636 18.6034C4.54462 18.6034 6.40319 17.9206 7.878 16.7727C5.99167 16.7397 4.39955 15.5025 3.85348 13.8052C4.12092 13.8564 4.39243 13.8822 4.66453 13.8822C5.05619 13.8822 5.43772 13.8305 5.79827 13.7323C3.82762 13.3409 2.34232 11.6129 2.34232 9.54059V9.48579C2.92362 9.80631 3.58738 9.99878 4.29461 10.021C3.138 9.25343 2.37755 7.94683 2.37755 6.46343C2.37755 5.67938 2.59045 4.94479 2.96112 4.31563C5.08544 6.90051 8.25993 8.6028 11.8411 8.78185C11.7672 8.46974 11.729 8.14004 11.729 7.8084C11.729 5.44704 13.658 3.5335 16.0383 3.5335ZM22.4986 5.53726H22.5023H22.4986ZM16.0383 2C13.0947 2 10.656 4.19997 10.2804 7.04249C7.87197 6.54752 5.68169 5.2432 4.10794 3.32965C3.96725 3.15845 3.79166 3.02081 3.59348 2.92636C3.39529 2.83192 3.17931 2.78297 2.96068 2.78295C2.92141 2.78296 2.88217 2.78449 2.84302 2.78755C2.60538 2.80702 2.3757 2.88407 2.17295 3.01234C1.9702 3.14061 1.80021 3.31641 1.67704 3.52521C1.15438 4.41235 0.87823 5.42855 0.878333 6.46434C0.878333 7.15561 0.999742 7.82886 1.22989 8.4584C0.984774 8.73713 0.843477 9.10175 0.843477 9.48668V9.5415C0.843477 11.0437 1.42403 12.4377 2.388 13.4825C2.33253 13.7455 2.34489 14.0208 2.4296 14.2845C2.76206 15.3193 3.36735 16.2111 4.15216 16.8904C3.62518 17.0105 3.08138 17.071 2.52629 17.071C2.23283 17.071 1.94724 17.0546 1.67701 17.0208C1.61705 17.0131 1.55783 17.0104 1.49824 17.0104C0.868588 17.0104 0.297031 17.4165 0.0848984 18.0357C-0.147847 18.7143 0.110408 19.4665 0.707053 19.8465C2.92135 21.2558 5.47891 22 8.10245 22C16.6297 22 21.7591 15.1713 21.8588 8.50091C22.5585 7.9087 23.1767 7.22232 23.6964 6.46046C23.8938 6.19536 24.0005 5.87123 24 5.538C24 5.0162 23.7448 4.55497 23.3561 4.27775C23.5244 3.6877 23.3325 3.04896 22.864 2.65866C22.5904 2.43092 22.255 2.31513 21.9177 2.31513C21.6547 2.31488 21.3964 2.38563 21.1688 2.52025C20.6733 2.81242 20.1434 3.04361 19.5853 3.21003C18.5756 2.43288 17.3238 2.00002 16.0383 2Z" fill="#F3F3F3"/>
</svg>
