<svg width="24" height="24" viewBox="0 0 24 24" fill="none" xmlns="http://www.w3.org/2000/svg">
<path d="M22.0378 4.07163C21.3883 3.61141 19.5782 3 11.9936 3C3.86589 3 2.66005 3.70213 2.27306 3.93187C0.2135 5.14987 0.0179575 10.5423 0 11.6357C0.0247237 13.0798 0.261847 17.8844 2.27159 19.073C2.65782 19.3019 3.8569 20 11.9936 20C19.5831 20 21.3909 19.3915 22.0378 18.9332C23.7932 17.6901 23.9951 13.4091 24 11.6169C23.9955 10.1758 23.8419 5.35089 22.0379 4.07165L22.0378 4.07163ZM21.1628 17.7362C20.9017 17.9213 19.4025 18.5249 11.9936 18.5249C4.83082 18.5249 3.32792 17.9777 3.04397 17.8092C2.32099 17.3821 1.55792 15.1153 1.49801 11.6316C1.5572 8.15566 2.33075 5.6182 3.04551 5.19633C3.33021 5.02707 4.83871 4.4754 11.9936 4.4754C19.3965 4.4754 20.8997 5.08315 21.1627 5.269C21.8045 5.72406 22.4915 8.11954 22.5016 11.6217C22.4915 15.1788 21.7999 17.2848 21.1627 17.7362H21.1628ZM16.8795 10.9199L10.1383 6.84761C10.0246 6.78015 9.8948 6.74361 9.76211 6.74173C9.62942 6.73985 9.4986 6.7727 9.38303 6.83692C9.26736 6.90114 9.1711 6.99446 9.10409 7.10733C9.03709 7.2202 9.00175 7.34857 9.00169 7.4793V15.6253C9.00179 15.8209 9.08075 16.0084 9.22123 16.1467C9.36171 16.285 9.55222 16.3627 9.75089 16.3628C9.88725 16.3628 10.021 16.3262 10.1378 16.257L16.8792 12.1833C17.104 12.0494 17.2414 11.8101 17.2414 11.5516C17.2414 11.2931 17.1043 11.053 16.8796 10.9199H16.8795ZM10.5005 14.3188V8.78507L15.0425 11.5515L10.5005 14.3188Z" fill="#F3F3F3"/>
</svg>
