<svg width="32" height="32" viewBox="0 0 32 32" fill="none" xmlns="http://www.w3.org/2000/svg">
<path d="M31.979 15.7994C31.332 3.75029 25.5224 1.98857 20.8386 1.988H20.8381C19.6546 1.98857 18.5442 2.10057 17.6061 2.18857C17.5981 1.64057 17.6199 1.05371 17.7058 0.405143C17.7074 0.396 17.7037 0.388 17.7026 0.379429C17.7037 0.374857 17.7058 0.370286 17.7058 0.365714C17.7058 0.164 17.3517 0 16.9133 0C16.4759 0 16.1218 0.164 16.1218 0.365714C16.0018 1.01948 15.8384 1.66322 15.6327 2.292C9.45295 2.332 1.31263 3.38229 0.0699598 15.3903C-0.831379 24.1051 7.11267 32 16.0498 32C24.9869 32 32.4488 24.5571 31.979 15.7994ZM17.9389 3.87829C18.157 3.85771 18.3831 3.83657 18.6157 3.81657C18.3362 3.93714 18.0647 4.06229 17.8093 4.188C17.7906 4.09771 17.7778 3.99029 17.7607 3.89429L17.9389 3.87829ZM14.9741 4.01429C14.9042 4.17029 14.8359 4.32 14.7703 4.45771C14.613 4.3052 14.4468 4.16358 14.2727 4.03371C14.5063 4.02514 14.7399 4.01943 14.9741 4.01429ZM27.012 25.3291C24.236 28.4794 20.2402 30.2857 16.0498 30.2857C11.7794 30.2857 7.53774 28.2606 4.70252 24.8686C2.40544 22.1194 1.3249 18.8206 1.66037 15.5789C2.29024 9.49429 4.80279 6.588 8.02734 5.21143C11.1516 4.58971 14.0914 5.73143 14.0914 5.73143C14.0914 5.73143 7.4092 3.95429 4.78892 13.1531C8.08654 7.64514 13.7612 9.26629 15.2541 7.236C15.2541 11.1611 17.9165 9.25657 19.2621 11.0246C20.9933 13.2977 21.6269 17.3709 23.6184 18.1731C21.6568 13.6611 24.8685 13.8371 20.356 7.78171C22.733 9.364 23.9656 7.76286 27.2115 9.18857C24.4344 4.32514 19.9917 5.73143 19.9917 5.73143C19.9917 5.73143 21.7997 3.96629 23.7165 4.01543C26.9549 4.82571 29.9336 7.552 30.3821 15.8983C30.5645 19.3069 29.3677 22.656 27.012 25.3291Z" fill="#F3F3F3"/>
</svg>
