<svg xmlns="http://www.w3.org/2000/svg" aria-hidden="true" style="position:absolute;width:0;height:0;overflow:hidden">
  <defs>
    <symbol id="icon-logo" viewBox="0 0 32 32">
      <path d="M31.979 15.799C31.332 3.75 25.522 1.988 20.839 1.988c-1.183.001-2.294.113-3.232.201-.008-.548.014-1.135.1-1.783.002-.009-.002-.017-.003-.026.001-.005.003-.009.003-.014 0-.202-.354-.366-.793-.366-.437 0-.791.164-.791.366-.12.654-.283 1.298-.489 1.926-6.18.04-14.32 1.09-15.563 13.098C-.83 24.105 7.114 32 16.051 32S32.45 24.557 31.98 15.799zM17.939 3.878c.218-.021.444-.042.677-.062-.279.121-.551.246-.806.371-.019-.09-.032-.198-.049-.294l.178-.016zm-2.965.136c-.07.156-.138.306-.204.443a5.023 5.023 0 0 0-.498-.424c.234-.009.467-.014.701-.019zm12.038 21.315a14.62 14.62 0 0 1-10.962 4.957c-4.27 0-8.512-2.025-11.347-5.417-2.297-2.749-3.378-6.048-3.042-9.29.63-6.085 3.142-8.991 6.367-10.367 3.124-.622 6.064.52 6.064.52S7.41 3.955 4.79 13.154c3.298-5.508 8.972-3.887 10.465-5.917 0 3.925 2.662 2.021 4.008 3.789 1.731 2.273 2.365 6.346 4.356 7.149-1.962-4.512 1.25-4.336-3.262-10.391 2.377 1.582 3.61-.019 6.855 1.407-2.777-4.863-7.22-3.457-7.22-3.457s1.808-1.765 3.725-1.716c3.238.81 6.217 3.537 6.666 11.883.182 3.409-1.014 6.758-3.37 9.431z"/>
    </symbol>
    <symbol id="hero__icon-twitter" viewBox="0 0 32 32">
      <path d="M21.387 4.959c1.653 0 3.144 0.676 4.195 1.762 1.307-0.253 2.54-0.714 3.647-1.353-0.429 1.301-1.34 2.393-2.525 3.083 1.16-0.136 2.271-0.434 3.301-0.88-0.773 1.117-1.745 2.1-2.868 2.886 0.010 0.239 0.017 0.479 0.017 0.719 0 7.366-5.782 15.863-16.354 15.863-3.245 0-6.268-0.926-8.809-2.507 0.455 0.053 0.912 0.079 1.37 0.079 2.692 0 5.172-0.89 7.139-2.387-2.517-0.043-4.641-1.656-5.369-3.87 0.357 0.067 0.719 0.101 1.082 0.101 0.522 0 1.032-0.067 1.513-0.195-2.629-0.511-4.611-2.764-4.611-5.467v-0.071c0.776 0.418 1.661 0.669 2.604 0.698-1.543-1.001-2.558-2.705-2.558-4.64 0-1.022 0.284-1.981 0.779-2.801 2.834 3.371 7.069 5.591 11.847 5.824-0.099-0.407-0.149-0.837-0.149-1.27 0-3.079 2.573-5.575 5.749-5.575zM30.006 7.572v0zM21.387 2.959c-3.927 0-7.18 2.869-7.681 6.576-3.213-0.646-6.135-2.346-8.235-4.842-0.188-0.223-0.422-0.403-0.686-0.526s-0.553-0.187-0.844-0.187c-0.052 0-0.105 0.002-0.157 0.006-0.317 0.025-0.623 0.126-0.894 0.293s-0.497 0.397-0.662 0.669c-0.697 1.157-1.066 2.482-1.066 3.833 0 0.902 0.162 1.78 0.469 2.601-0.327 0.364-0.515 0.839-0.515 1.341v0.072c0 1.959 0.774 3.777 2.061 5.14-0.074 0.343-0.058 0.702 0.055 1.046 0.444 1.349 1.251 2.512 2.298 3.398-0.703 0.157-1.429 0.235-2.169 0.235-0.392 0-0.772-0.021-1.133-0.065-0.080-0.010-0.159-0.013-0.238-0.013-0.84 0-1.603 0.529-1.885 1.337-0.31 0.885 0.034 1.866 0.83 2.361 2.954 1.838 6.366 2.809 9.866 2.809 11.376 0 18.219-8.905 18.352-17.604 0.933-0.772 1.758-1.667 2.451-2.661 0.263-0.346 0.406-0.768 0.405-1.203 0-0.681-0.341-1.282-0.859-1.644 0.224-0.769-0.032-1.603-0.657-2.111-0.365-0.297-0.813-0.448-1.263-0.448-0.351-0-0.695 0.092-0.999 0.268-0.661 0.381-1.368 0.683-2.112 0.9-1.347-1.014-3.017-1.578-4.732-1.578z"></path>
    </symbol>
    <symbol id="hero__icon-youtube" viewBox="0 0 32 32">
      <path d="M29.398 5.928c-0.867-0.624-3.283-1.453-13.406-1.453-10.849 0-12.458 0.952-12.975 1.264-2.749 1.651-3.010 8.963-3.034 10.445 0.033 1.958 0.349 8.473 3.032 10.084 0.516 0.31 2.116 1.257 12.977 1.257 10.13 0 12.543-0.825 13.406-1.447 2.343-1.685 2.613-7.49 2.619-9.92-0.006-1.954-0.211-8.496-2.619-10.23v-0zM28.23 24.455c-0.349 0.251-2.35 1.069-12.239 1.069-9.56 0-11.566-0.742-11.945-0.971-0.965-0.579-1.984-3.653-2.063-8.376 0.079-4.713 1.111-8.153 2.066-8.726 0.38-0.229 2.393-0.978 11.943-0.978 9.881 0 11.887 0.824 12.239 1.076 0.857 0.617 1.773 3.865 1.787 8.613-0.013 4.823-0.936 7.679-1.787 8.291v0zM22.513 15.213l-8.998-5.521c-0.152-0.091-0.325-0.141-0.502-0.144s-0.352 0.042-0.506 0.129c-0.154 0.087-0.283 0.214-0.372 0.367s-0.137 0.327-0.137 0.504v11.045c0 0.265 0.106 0.519 0.293 0.707s0.442 0.293 0.707 0.293c0.182 0 0.361-0.050 0.517-0.143l8.998-5.524c0.3-0.181 0.483-0.506 0.483-0.856s-0.183-0.676-0.483-0.857h-0zM13.999 19.822v-7.503l6.063 3.751-6.063 3.752z"></path>
    </symbol>
    <symbol id="hero__icon-instagram" viewBox="0 0 32 32">
      <path d="M15.969 0.125c4.312 0 4.844 0.031 6.531 0.094 1.656 0.063 2.813 0.344 3.844 0.75 1.063 0.406 1.937 0.938 2.813 1.813s1.406 1.75 1.813 2.813c0.406 1.031 0.687 2.188 0.75 3.844 0.062 1.688 0.094 2.219 0.094 6.531s-0.031 4.844-0.094 6.531c-0.063 1.656-0.344 2.813-0.75 3.844-0.406 1.063-0.938 1.937-1.813 2.813s-1.75 1.406-2.813 1.813c-1.031 0.406-2.187 0.687-3.844 0.75-1.687 0.062-2.219 0.094-6.531 0.094s-4.844-0.031-6.531-0.094c-1.656-0.063-2.813-0.344-3.844-0.75-1.063-0.406-1.938-0.938-2.813-1.813s-1.406-1.75-1.813-2.813c-0.406-1.031-0.688-2.187-0.75-3.844-0.063-1.687-0.094-2.219-0.094-6.531s0.031-4.844 0.094-6.531c0.063-1.656 0.344-2.813 0.75-3.844 0.406-1.063 0.938-1.938 1.813-2.813s1.75-1.406 2.813-1.813c1.031-0.406 2.188-0.688 3.844-0.75 1.688-0.063 2.219-0.094 6.531-0.094zM15.969 2.188c-4.5 0-5.031 0.031-6.781 0.094-1.625 0.063-2.531 0.375-3.125 0.594-1.531 0.625-2.563 1.656-3.188 3.188-0.219 0.594-0.531 1.5-0.594 3.125-0.063 1.75-0.094 2.281-0.094 6.781s0.031 5.031 0.094 6.781c0.063 1.625 0.375 2.531 0.594 3.125 0.625 1.531 1.656 2.563 3.188 3.188 0.594 0.219 1.5 0.531 3.125 0.594 1.75 0.063 2.281 0.094 6.781 0.094s5.031-0.031 6.781-0.094c1.625-0.063 2.531-0.375 3.125-0.594 1.531-0.625 2.563-1.656 3.188-3.188 0.219-0.594 0.531-1.5 0.594-3.125 0.063-1.75 0.094-2.281 0.094-6.781s-0.031-5.031-0.094-6.781c-0.063-1.625-0.375-2.531-0.594-3.125-0.625-1.531-1.656-2.563-3.188-3.188-0.594-0.219-1.5-0.531-3.125-0.594-1.75-0.063-2.281-0.094-6.781-0.094zM15.969 22.313c3.5 0 6.344-2.844 6.344-6.344s-2.844-6.344-6.344-6.344c-3.5 0-6.344 2.844-6.344 6.344s2.844 6.344 6.344 6.344zM15.969 7.844c4.5 0 8.125 3.625 8.125 8.125s-3.625 8.125-8.125 8.125c-4.5 0-8.125-3.625-8.125-8.125s3.625-8.125 8.125-8.125zM26.344 7.531c0 1.063-0.875 1.875-1.937 1.875s-1.875-0.813-1.875-1.875c0-1.063 0.813-1.938 1.875-1.938s1.937 0.875 1.937 1.938z"></path>
    </symbol>
    <symbol id="hero__icon-tumblr" viewBox="0 0 32 32">
      <path d="M16.501 1.992v6.996h7.010v2.999h-6.979l-0.010 8.704c0 1.618 0.084 2.657 0.255 3.117 0.267 0.727 1.237 1.657 3.037 1.657 1.397 0 3.281-0.42 4.693-1.477v4.666c-1.177 0.561-2.273 0.788-3.227 1.015-0.955 0.225-1.989 0.339-3.098 0.339-1.235 0-4.802-0.034-6.266-3.763-0.264-0.671-0.395-1.645-0.395-2.921v-11.332h-4.027l0.019-3.066c1.333 0 5.332-0.81 5.332-6.934l3.655-0zM16.501-0.008l-3.656-0c-1.104 0-2 0.895-2 2 0 4.578-2.551 4.934-3.332 4.934-1.101 0-1.995 0.889-2 1.99l-0.019 3.066c-0.003 0.532 0.207 1.043 0.582 1.421 0.186 0.187 0.407 0.335 0.65 0.436s0.504 0.153 0.768 0.153h2.027v9.332c0 1.543 0.175 2.739 0.534 3.653 0.901 2.295 3.043 5.032 8.127 5.032 1.259 0 2.456-0.132 3.558-0.393l0.221-0.052c0.933-0.219 2.126-0.493 3.407-1.104 0.341-0.162 0.629-0.418 0.831-0.738s0.309-0.69 0.309-1.068v-4.666c0-0.371-0.103-0.735-0.298-1.051s-0.474-0.571-0.806-0.737c-0.283-0.143-0.59-0.212-0.895-0.212-0.432 0-0.852 0.14-1.198 0.398-1.191 0.892-2.714 1.078-3.494 1.078-0.8 0-1.097-0.29-1.163-0.367-0.034-0.157-0.129-0.743-0.129-2.407l0.007-6.704h4.982c1.104 0 2-0.896 2-2v-2.999c0-1.104-0.896-2-2-2h-5.010v-4.996c0-1.105-0.896-2-2-2v0z"></path>
    </symbol>
    <symbol id="icon-menu-hamburger" viewBox="0 0 55 32">
      <path stroke-linejoin="miter" stroke-linecap="butt" stroke-miterlimit="4" stroke-width="1.7778" d="M0 1.778h55.111"></path>
      <path stroke-linejoin="miter" stroke-linecap="butt" stroke-miterlimit="4" stroke-width="1.7778" d="M0 16h55.111"></path>
      <path stroke-linejoin="miter" stroke-linecap="butt" stroke-miterlimit="4" stroke-width="1.7778" d="M0 30.222h55.111"></path>
    </symbol>
    <symbol id="icon-order-modal" viewBox="0 0 32 32">
    <path d="M16 12.648l11.733-11.733 3.352 3.352-11.733 11.733 11.733 11.733-3.352 3.352-11.733-11.733-11.733 11.733-3.352-3.352 11.733-11.733-11.733-11.733 3.352-3.352 11.733 11.733z"></path>
    </symbol>
  </defs>
</svg>